<?xml version="1.0" standalone="no"?>
<!DOCTYPE svg PUBLIC "-//W3C//DTD SVG 20010904//EN"
 "http://www.w3.org/TR/2001/REC-SVG-20010904/DTD/svg10.dtd">
<svg version="1.0" xmlns="http://www.w3.org/2000/svg"
 width="336.000000pt" height="336.000000pt" viewBox="0 0 336.000000 336.000000"
 preserveAspectRatio="xMidYMid meet">
<metadata>
Created by potrace 1.11, written by Peter Selinger 2001-2013
</metadata>
<g transform="translate(0.000000,336.000000) scale(0.100000,-0.100000)"
fill="#000000" stroke="none">
<path d="M3 2418 c2 -518 6 -956 10 -973 4 -16 15 -66 23 -110 98 -494 446
-939 909 -1165 89 -43 278 -113 338 -124 12 -2 63 -12 112 -22 68 -13 138 -18
285 -18 184 0 235 5 388 39 12 3 31 7 41 9 58 13 219 74 306 116 326 158 592
420 764 750 64 124 137 341 155 466 4 22 9 51 13 64 4 14 8 450 10 969 l4 943
-104 -6 c-57 -3 -142 -13 -188 -22 -46 -9 -95 -18 -109 -20 -93 -17 -334 -117
-460 -190 -158 -92 -371 -284 -482 -434 -111 -151 -194 -308 -249 -472 -30
-88 -34 -103 -45 -158 -3 -14 -9 -43 -14 -66 -9 -37 -22 -140 -23 -171 0 -7
-4 -13 -9 -13 -4 0 -9 20 -9 45 -1 25 -2 48 -3 53 -1 4 -6 30 -11 57 -4 28 -9
55 -11 60 -1 6 -5 24 -8 42 -24 127 -134 384 -222 520 -173 265 -420 481 -706
616 -74 35 -261 101 -316 112 -128 25 -211 36 -295 41 l-98 6 4 -944z"/>
</g>
</svg>
