<?xml version="1.0" standalone="no"?>
<!DOCTYPE svg PUBLIC "-//W3C//DTD SVG 20010904//EN"
 "http://www.w3.org/TR/2001/REC-SVG-20010904/DTD/svg10.dtd">
<svg version="1.0" xmlns="http://www.w3.org/2000/svg"
 width="512.000000pt" height="512.000000pt" viewBox="0 0 512.000000 512.000000"
 preserveAspectRatio="xMidYMid meet">
<metadata>
Created by potrace 1.11, written by Peter Selinger 2001-2013
</metadata>
<g transform="translate(0.000000,512.000000) scale(0.100000,-0.100000)"
fill="#000000" stroke="none">
<path d="M0 4000 l0 -1110 1110 0 c611 0 1110 2 1110 5 0 7 -2208 2215 -2215
2215 -3 0 -5 -499 -5 -1110z"/>
<path d="M4003 4004 c-607 -607 -1103 -1106 -1103 -1109 0 -3 500 -5 1110 -5
l1110 0 0 1110 c0 611 -3 1110 -7 1109 -5 0 -504 -498 -1110 -1105z"/>
<path d="M4 2115 c6 -126 28 -281 52 -384 25 -102 75 -265 85 -275 5 -6 9 -16
9 -24 0 -52 204 -427 292 -537 235 -293 461 -485 748 -638 171 -91 409 -176
595 -213 11 -2 31 -6 45 -9 14 -3 50 -8 80 -11 30 -3 57 -7 60 -9 3 -2 63 -6
133 -10 l127 -7 0 1116 0 1116 -1116 0 -1116 0 6 -115z"/>
<path d="M2890 1114 l0 -1117 115 7 c315 16 615 96 900 240 55 28 105 54 110
58 6 5 46 31 90 59 73 47 161 113 240 178 69 58 235 232 296 311 227 292 369
603 438 961 25 129 29 165 37 307 l6 112 -1116 0 -1116 0 0 -1116z"/>
</g>
</svg>
