<?xml version="1.0" standalone="no"?>
<!DOCTYPE svg PUBLIC "-//W3C//DTD SVG 20010904//EN"
 "http://www.w3.org/TR/2001/REC-SVG-20010904/DTD/svg10.dtd">
<svg version="1.0" xmlns="http://www.w3.org/2000/svg"
 width="448.000000pt" height="448.000000pt" viewBox="0 0 448.000000 448.000000"
 preserveAspectRatio="xMidYMid meet">
<metadata>
Created by potrace 1.11, written by Peter Selinger 2001-2013
</metadata>
<g transform="translate(0.000000,448.000000) scale(0.100000,-0.100000)"
fill="#000000" stroke="none">
<path d="M3 3248 c2 -678 6 -1244 9 -1258 3 -14 9 -50 12 -80 48 -373 250
-820 504 -1115 306 -355 693 -600 1133 -719 52 -14 110 -28 129 -31 19 -3 60
-10 90 -15 118 -21 162 -24 350 -24 181 0 239 3 345 19 271 41 575 148 800
283 71 42 248 166 289 202 281 244 464 481 606 783 47 101 123 305 134 363 3
16 17 81 30 144 13 63 27 135 32 160 4 25 9 602 11 1283 l4 1239 -118 -6 c-65
-3 -127 -8 -138 -10 -11 -2 -42 -7 -70 -10 -262 -33 -593 -151 -830 -296 -75
-46 -224 -151 -265 -187 -14 -12 -36 -31 -50 -43 -68 -59 -180 -173 -260 -266
-14 -16 -48 -60 -75 -99 -172 -239 -289 -483 -360 -750 -29 -109 -63 -313 -67
-397 -3 -57 -12 -69 -14 -20 -3 51 -16 177 -19 182 -2 3 -6 26 -10 50 -3 25
-11 65 -17 90 -5 25 -11 53 -13 62 -30 146 -151 440 -243 592 -23 37 -42 70
-42 72 0 3 -5 10 -10 17 -6 7 -43 57 -84 112 -271 369 -654 646 -1089 789 -76
25 -148 48 -160 50 -12 3 -53 11 -92 19 -38 8 -95 18 -125 22 -30 4 -64 9 -75
11 -11 2 -73 7 -138 10 l-118 6 4 -1234z"/>
</g>
</svg>
